<svg xmlns="http://www.w3.org/2000/svg" fill="none" viewBox="0 0 230 48"><path fill="#000" d="M37.154 5.905a1.33 1.33 0 0 0-.465-.86c-.247-.219-.562-.358-.813-.475l-.217-.104a64 64 0 0 0-1.56-.725l-.306-.137-1.723-.744-2.334-1a57 57 0 0 0-1.703-.7l-.9-.364C26.177.406 25.193 0 24.145 0a3.4 3.4 0 0 0-1.885.546A2.7 2.7 0 0 0 21.015 2.4c-.208 1-.747 3.181-1.238 5.132a.845.845 0 0 1-.972.617 146 146 0 0 0-2.59-.455c-1.184-.195-2.36-.52-3.57-.608-1.202-.081-2.385.254-3.55.54a37.5 37.5 0 0 0-7.41 2.6c-.621.305-.77.61-.78 1.267-.052 2.428-.426 4.895-.572 7.32a189 189 0 0 0-.306 7.933c-.088 5.382 0 10.832.832 16.165.03.182.098.387.088.572a.8.8 0 0 0 .11.413c.13.234.517.943 7.607 2.561C10.744 46.931 15.81 48 19.065 48q.198 0 .397-.01c7.635-.227 10.229-3.328 10.34-3.461.2-.254.324-.403.526-5.623.12-2.944.227-6.91.292-10.89.082-4.2.124-8.06.101-10.888-.01-1.186-.01-2.356-.058-3.533q-.024-.766-.12-1.527c-.111-.78-.78-1.047-1.43-1.323a20 20 0 0 0-.83-.315 47 47 0 0 0-3.494-1.034l-.367-.081a.95.95 0 0 1-.666-1.144l.897-3.816q.238-.153.445-.344l1.144.494 7.925 3.39q.202.078.406.182l.097.042q.092.048.218.088c.124.042.293.107.5.123.144 0 .264-.032.381-.058.253-.086.48-.232.663-.426.204-.197.37-.431.488-.69a2.3 2.3 0 0 0 .237-1.26zM5.54 41.812a.247.247 0 0 1-.444-.037.26.26 0 0 1-.005-.184l4.271-13.202-6.858-.66a.26.26 0 0 1-.208-.162.3.3 0 0 1 .055-.267l8.41-9.7a.24.24 0 0 1 .32-.033c.105.065.14.198.098.318l-2.564 6.02c-.04.097.032.2.13.2h6.881a.23.23 0 0 1 .211.13.26.26 0 0 1 0 .254L5.55 41.815zm13.148 3.195c-.01.234-.221.413-.494.413-1.788.055-4.564-.053-7.119-.65-.175-.04-.143-.293.036-.306 7.834-.449 5.558-16.734 7.213-25.922 1.609-8.996.504 22.529.357 26.465zm6.5-32.683q1.067-.21 2.16-.263c1.072-.062 1.13-.09.935.098-.143.146-.458.217-.643.292q-.434.165-.871.315c-1.3.449-2.617.855-3.933 1.248-.976.293-1.938.592-2.92.826a5 5 0 0 1-.445.084 6.5 6.5 0 0 1-2.103-.14q-1.47-.283-2.922-.633a262 262 0 0 1-7.99-2.096c-2.69-.77-3.14-1.229.205-.748l.329.033c1.8.276 3.617.516 5.405.796 2.665.422 5.402.994 8.107.848 1.576-.084 3.14-.348 4.687-.66m70.988 5.324H91.32v24.099h4.856zm-2.451-8.97q-1.414 0-2.318.877c-.61.585-.916 1.365-.916 2.308q0 1.424.906 2.327a3.18 3.18 0 0 0 2.328.907q1.417 0 2.347-.9a3.12 3.12 0 0 0 .936-2.337 3.06 3.06 0 0 0-.946-2.321 3.28 3.28 0 0 0-2.334-.864zm25.971 23.494a6.5 6.5 0 0 1-2.496 4.274 7.8 7.8 0 0 1-4.964 1.664c-1.511 0-2.877-.35-4.063-1.043a7.25 7.25 0 0 1-2.779-2.945 9.4 9.4 0 0 1-1.021-4.4c0-1.642.325-3.13.962-4.417.625-1.264 1.489-2.256 2.568-2.945 1.076-.682 2.308-1.03 3.657-1.03q2.276.007 4.034 1.333a6.5 6.5 0 0 1 2.373 3.523l.185.66 4.71-1.08-.176-.711a10.4 10.4 0 0 0-3.998-6.01c-2.031-1.527-4.433-2.3-7.125-2.3a11.83 11.83 0 0 0-6.234 1.676 11.54 11.54 0 0 0-4.287 4.635c-1.005 1.95-1.515 4.186-1.515 6.656s.546 4.713 1.615 6.65a11.9 11.9 0 0 0 4.541 4.605c1.931 1.105 4.138 1.664 6.556 1.664 2.016 0 3.917-.416 5.653-1.235a12.35 12.35 0 0 0 4.365-3.413 10.4 10.4 0 0 0 2.194-4.933l.104-.68-4.739-.958-.114.744zm27.154 2.019c-.591 1.124-1.54 2.07-2.821 2.804a8.65 8.65 0 0 1-4.356 1.115c-2.23 0-4.141-.682-5.675-2.04a7.8 7.8 0 0 1-2.519-4.506h18.911l.065-.65q.05-.487.052-1.423c-.032-2.437-.543-4.631-1.518-6.533a11.4 11.4 0 0 0-4.144-4.55c-1.772-1.098-3.839-1.654-6.15-1.654s-4.473.556-6.339 1.648a11.7 11.7 0 0 0-4.397 4.537c-1.041 1.911-1.57 4.102-1.57 6.516 0 2.415.572 4.745 1.709 6.75a12.35 12.35 0 0 0 4.766 4.736c2.015 1.137 4.293 1.703 6.774 1.703 2.632 0 5.021-.614 7.102-1.823 2.106-1.226 3.585-2.844 4.388-4.817l.279-.663-4.241-1.732-.306.582zm-8.21-12.854c1.895 0 3.471.575 4.671 1.71 1.049.994 1.729 2.362 2.008 4.075h-13.76c.387-1.606 1.148-2.948 2.266-3.982 1.297-1.196 2.912-1.803 4.81-1.803zm66.771 1.602a11.4 11.4 0 0 0-4.525-4.57c-1.928-1.072-4.193-1.615-6.729-1.615q-3.796.007-6.686 1.615a11.4 11.4 0 0 0-4.524 4.57c-1.057 1.937-1.596 4.222-1.596 6.783q0 3.835 1.589 6.734a11.37 11.37 0 0 0 4.525 4.57c1.927 1.072 4.177 1.615 6.686 1.615 2.513 0 4.801-.546 6.728-1.616a11.37 11.37 0 0 0 4.528-4.57c1.057-1.933 1.593-4.205 1.593-6.733 0-2.532-.536-4.846-1.593-6.783zM194.157 38.11c-2.415 0-4.365-.76-5.792-2.265-1.433-1.515-2.158-3.575-2.158-6.123 0-2.552.728-4.612 2.158-6.126 1.427-1.505 3.371-2.266 5.792-2.266 2.419 0 4.366.76 5.786 2.266 1.434 1.514 2.159 3.575 2.159 6.126s-.729 4.608-2.159 6.123c-1.427 1.505-3.37 2.265-5.786 2.265"/><path fill="#000" d="m221.101 29.332 8.466-11.495-5.788.064-5.7 8.11-5.854-8.17h-5.671l8.466 11.417-8.902 12.32 5.824-.06 6.137-8.84 6.172 8.9H230zm-165.38 1.226c0 1.684-.185 4.13-1.773 5.882-1.171 1.29-2.765 1.92-4.86 1.92-1.963 0-3.463-.55-4.871-1.783a6.4 6.4 0 0 1-1.201-1.418 8.6 8.6 0 0 1-.84-1.812 9.5 9.5 0 0 1-.348-1.25 10 10 0 0 1-.133-.88l-.049-.352L37 32.805l.11.5c.645 3.06 2.063 5.469 4.204 7.16C43.481 42.173 46.091 43 49.286 43c3.608 0 6.474-1.057 8.53-3.141 2.05-2.081 3.092-4.963 3.092-8.558V9.003H55.73v21.555zm26.105-12.721v13.307c0 1.37-.313 2.603-.918 3.65a6.46 6.46 0 0 1-2.512 2.45c-1.073.585-2.31.88-3.676.88-1.605 0-2.834-.48-3.762-1.454-.93-.973-1.399-2.344-1.399-4.066V17.837h-4.91v15.116c0 2.917.824 5.25 2.444 6.941 1.633 1.697 3.885 2.568 6.683 2.568.927 0 1.855-.064 2.766-.243.904-.176 1.763-.433 2.472-.993a8.7 8.7 0 0 0 1.975-2.19c.53-.832.846-1.748 1.178-2.667l.895.256c-.8 2.177-1.275 4.96-1.275 4.96h4.9V17.85h-4.861zm95.68 5.373a12 12 0 0 0-4.37-4.579 12 12 0 0 0-6.267-1.675c-2.681 0-5.505.794-7.021 3.125a14 14 0 0 0-1.448 3.087l-.895-.26c.501-1.376.876-2.996 1.081-4.002q.146-.705.146-1.43V9h-4.861v32.575h4.897c-.036-.208-.508-2.853-1.263-4.937l.895-.262c-.039.012.716 1.853.801 2.017a7.7 7.7 0 0 0 2.059 2.535c.866.689 1.956 1.057 3.033 1.268 2.63.542 5.367.241 7.812-.858q.513-.24.998-.522a11.76 11.76 0 0 0 4.399-4.581c1.058-1.937 1.595-4.124 1.595-6.5 0-2.382-.537-4.604-1.595-6.532zm-4.328 10.767a7.63 7.63 0 0 1-2.775 2.956c-1.165.707-2.505 1.063-3.983 1.063-1.477 0-2.814-.365-3.979-1.083a7.74 7.74 0 0 1-2.785-2.98 8.86 8.86 0 0 1-1.022-4.201c0-1.528.349-2.988 1.022-4.25a7.63 7.63 0 0 1 2.775-2.954c1.165-.708 2.506-1.063 3.983-1.063q2.222.003 3.986 1.063a7.56 7.56 0 0 1 2.772 2.955c.676 1.261 1.021 2.69 1.021 4.249q-.003 2.337-1.021 4.245z"/></svg>